<?xml version="1.0" encoding="utf-8"?>
<!DOCTYPE svg PUBLIC "-//W3C//DTD SVG 1.1//EN" "http://www.w3.org/Graphics/SVG/1.1/DTD/svg11.dtd">
<svg version="1.1" id="Layer_1"
	 xmlns="http://www.w3.org/2000/svg" x="0px" y="0px" viewBox="0 0 229.82 75.17"
	 style="enable-background:new 0 0 229.82 75.17;" xml:space="preserve">
<style type="text/css">
	.st0{fill:#53BAA1;}
	.st1{fill:#202826;}
</style>

	<g>
		<polygon class="st0" points="184.41,10.2 173.09,27.55 161.76,10.2"/>
		<polygon class="st0" points="161.76,67.03 173.09,49.68 184.41,67.03"/>
		<polygon class="st0" points="221.49,10.2 210.17,27.55 198.84,10.2"/>
		<polygon class="st0" points="198.84,67.03 210.17,49.68 221.49,67.03"/>
		<g>
			<path class="st1" d="M148.89,37.69c2.09-2.81,3.13-6.22,3.13-10.23c0-3.32-0.58-6.09-1.73-8.31c-1.15-2.22-2.7-3.99-4.66-5.3
				c-1.95-1.31-4.23-2.25-6.82-2.81c-2.6-0.56-5.34-0.84-8.23-0.84H108.6v17.57c-0.18-0.51-0.37-1.02-0.57-1.52
				c-1.52-3.69-3.65-6.84-6.38-9.43c-2.73-2.6-5.97-4.59-9.71-5.98c-3.75-1.39-7.84-2.09-12.28-2.09c-4.44,0-8.54,0.7-12.28,2.09
				c-3.75,1.39-6.98,3.39-9.71,5.98c-2.46,2.34-4.4,5.15-5.88,8.37c-0.21-2.33-0.75-4.35-1.62-6.05c-1.15-2.22-2.7-3.99-4.66-5.3
				c-1.95-1.31-4.23-2.25-6.82-2.81c-2.6-0.56-5.34-0.84-8.23-0.84H8.45v56.83h12.52V44.31h6.18l11.88,22.72h15.01l-14.45-24
				c4.01-0.75,7.06-2.53,9.15-5.34c0.1-0.13,0.18-0.27,0.27-0.4c-0.01,0.44-0.03,0.88-0.03,1.32c0,4.55,0.76,8.67,2.29,12.36
				c1.53,3.69,3.65,6.84,6.38,9.43c2.73,2.6,5.97,4.59,9.71,5.98c3.75,1.39,7.84,2.09,12.28,2.09c4.44,0,8.53-0.7,12.28-2.09
				c3.74-1.39,6.98-3.38,9.71-5.98c2.73-2.6,4.86-5.74,6.38-9.43c0.21-0.5,0.4-1.01,0.57-1.52v17.57h12.52V44.31h6.18l11.88,22.72
				h15.01l-14.45-24C143.76,42.28,146.81,40.5,148.89,37.69z M37.87,30.99c-0.67,0.86-1.51,1.49-2.53,1.89
				c-1.02,0.4-2.15,0.64-3.41,0.72c-1.26,0.08-2.45,0.12-3.57,0.12h-7.38V20.79h8.19c1.12,0,2.27,0.08,3.45,0.24
				c1.18,0.16,2.22,0.47,3.13,0.92c0.91,0.46,1.66,1.11,2.25,1.97c0.59,0.86,0.88,2.01,0.88,3.45
				C38.87,28.93,38.54,30.13,37.87,30.99z M96.07,45.96c-0.83,2.22-2.02,4.15-3.57,5.78c-1.55,1.63-3.41,2.9-5.58,3.81
				c-2.17,0.91-4.59,1.37-7.26,1.37c-2.68,0-5.1-0.45-7.26-1.37c-2.17-0.91-4.03-2.18-5.58-3.81c-1.55-1.63-2.74-3.56-3.57-5.78
				c-0.83-2.22-1.24-4.67-1.24-7.34c0-2.62,0.41-5.06,1.24-7.3c0.83-2.25,2.02-4.19,3.57-5.82c1.55-1.63,3.41-2.9,5.58-3.81
				c2.17-0.91,4.59-1.37,7.26-1.37c2.68,0,5.1,0.46,7.26,1.37s4.03,2.18,5.58,3.81c1.55,1.63,2.74,3.57,3.57,5.82
				c0.83,2.25,1.24,4.68,1.24,7.3C97.31,41.29,96.9,43.74,96.07,45.96z M138.02,30.99c-0.67,0.86-1.51,1.49-2.53,1.89
				c-1.02,0.4-2.15,0.64-3.41,0.72c-1.26,0.08-2.45,0.12-3.57,0.12h-7.38V20.79h8.19c1.12,0,2.27,0.08,3.45,0.24
				c1.18,0.16,2.22,0.47,3.13,0.92c0.91,0.46,1.66,1.11,2.25,1.97c0.59,0.86,0.88,2.01,0.88,3.45
				C139.02,28.93,138.69,30.13,138.02,30.99z"/>
		</g>
	</g>
</svg>
